<mxfile host="Electron" agent="Mozilla/5.0 (Windows NT 10.0; Win64; x64) AppleWebKit/537.36 (KHTML, like Gecko) draw.io/24.7.17 Chrome/128.0.6613.36 Electron/32.0.1 Safari/537.36" version="24.7.17">
  <diagram name="queue" id="blD7ZZ_PqU-iT5JnfKSL">
    <mxGraphModel dx="1027" dy="741" grid="1" gridSize="10" guides="1" tooltips="1" connect="1" arrows="1" fold="1" page="1" pageScale="1" pageWidth="980" pageHeight="690" math="0" shadow="0">
      <root>
        <mxCell id="0" />
        <mxCell id="1" parent="0" />
        <mxCell id="sCs1FFfdnBTJLXxeUYFg-8" value="hàng đợi" style="rounded=1;whiteSpace=wrap;html=1;fillColor=#e0f7fa;strokeColor=#56a69e;fontFamily=Noto Sans;fontSource=https%3A%2F%2Ffonts.googleapis.com%2Fcss%3Ffamily%3DNoto%2BSans;verticalAlign=top;fontSize=16;" parent="1" vertex="1">
          <mxGeometry x="180" y="310" width="680" height="110" as="geometry" />
        </mxCell>
        <mxCell id="sCs1FFfdnBTJLXxeUYFg-1" value="&#39;Bernard Arnault&#39;" style="rounded=1;whiteSpace=wrap;html=1;strokeColor=none;fillColor=#72bcd4;fontFamily=consolas;fontSize=16;fontColor=#4D4D4D;arcSize=30;" parent="1" vertex="1">
          <mxGeometry x="200" y="350" width="120" height="50" as="geometry" />
        </mxCell>
        <mxCell id="sCs1FFfdnBTJLXxeUYFg-2" value="&#39;Mark Zuckerberg&#39;" style="rounded=1;whiteSpace=wrap;html=1;strokeColor=none;fillColor=#72bcd4;fontFamily=consolas;fontSize=16;fontColor=#4D4D4D;arcSize=30;" parent="1" vertex="1">
          <mxGeometry x="590" y="350" width="120" height="50" as="geometry" />
        </mxCell>
        <mxCell id="sCs1FFfdnBTJLXxeUYFg-3" value="&#39;Larry Ellison&#39;" style="rounded=1;whiteSpace=wrap;html=1;strokeColor=none;fillColor=#72bcd4;fontFamily=consolas;fontSize=16;fontColor=#4D4D4D;arcSize=30;" parent="1" vertex="1">
          <mxGeometry x="720" y="350" width="120" height="50" as="geometry" />
        </mxCell>
        <mxCell id="sCs1FFfdnBTJLXxeUYFg-4" value="&#39;Elon Musk&#39;" style="rounded=1;whiteSpace=wrap;html=1;strokeColor=none;fillColor=#72bcd4;fontFamily=consolas;fontSize=16;fontColor=#4D4D4D;arcSize=30;" parent="1" vertex="1">
          <mxGeometry x="330" y="350" width="120" height="50" as="geometry" />
        </mxCell>
        <mxCell id="sCs1FFfdnBTJLXxeUYFg-5" value="&#39;Jeff Bezos&#39;" style="rounded=1;whiteSpace=wrap;html=1;strokeColor=none;fillColor=#72bcd4;fontFamily=consolas;fontSize=16;fontColor=#4D4D4D;arcSize=30;" parent="1" vertex="1">
          <mxGeometry x="460" y="350" width="120" height="50" as="geometry" />
        </mxCell>
        <mxCell id="sCs1FFfdnBTJLXxeUYFg-6" value="đầu" style="rounded=1;whiteSpace=wrap;html=1;fontFamily=Noto Sans;fontSource=https%3A%2F%2Ffonts.googleapis.com%2Fcss%3Ffamily%3DNoto%2BSans;arcSize=50;fillColor=#0cc167;strokeColor=none;fontColor=#FFFFFF;fontSize=16;" parent="1" vertex="1">
          <mxGeometry x="210" y="240" width="100" height="40" as="geometry" />
        </mxCell>
        <mxCell id="sCs1FFfdnBTJLXxeUYFg-7" value="cuối" style="rounded=1;whiteSpace=wrap;html=1;fontFamily=Noto Sans;fontSource=https%3A%2F%2Ffonts.googleapis.com%2Fcss%3Ffamily%3DNoto%2BSans;arcSize=50;fillColor=#ff9966;strokeColor=none;fontColor=#FFFFFF;fontSize=16;" parent="1" vertex="1">
          <mxGeometry x="730" y="240" width="100" height="40" as="geometry" />
        </mxCell>
        <mxCell id="sCs1FFfdnBTJLXxeUYFg-9" value="" style="endArrow=classic;html=1;rounded=0;strokeColor=#0CC167;strokeWidth=2;exitX=0.5;exitY=1;exitDx=0;exitDy=0;endFill=1;" parent="1" source="sCs1FFfdnBTJLXxeUYFg-6" target="sCs1FFfdnBTJLXxeUYFg-1" edge="1">
          <mxGeometry width="50" height="50" relative="1" as="geometry">
            <mxPoint x="480" y="280" as="sourcePoint" />
            <mxPoint x="420" y="270" as="targetPoint" />
          </mxGeometry>
        </mxCell>
        <mxCell id="sCs1FFfdnBTJLXxeUYFg-10" value="" style="endArrow=classic;html=1;rounded=0;strokeColor=#ff9966;strokeWidth=2;exitX=0.5;exitY=1;exitDx=0;exitDy=0;entryX=0.5;entryY=0;entryDx=0;entryDy=0;endFill=1;" parent="1" source="sCs1FFfdnBTJLXxeUYFg-7" target="sCs1FFfdnBTJLXxeUYFg-3" edge="1">
          <mxGeometry width="50" height="50" relative="1" as="geometry">
            <mxPoint x="270" y="290" as="sourcePoint" />
            <mxPoint x="270" y="360" as="targetPoint" />
          </mxGeometry>
        </mxCell>
        <mxCell id="sCs1FFfdnBTJLXxeUYFg-11" value="lấy ra" style="edgeStyle=segmentEdgeStyle;endArrow=blockThin;html=1;curved=0;rounded=1;endSize=8;startSize=8;strokeWidth=5;endFill=1;fontSize=16;fontFamily=Noto Sans;fontSource=https%3A%2F%2Ffonts.googleapis.com%2Fcss%3Ffamily%3DNoto%2BSans;labelBackgroundColor=none;" parent="1" edge="1">
          <mxGeometry x="-0.2" y="-20" width="50" height="50" relative="1" as="geometry">
            <mxPoint x="190" y="370" as="sourcePoint" />
            <mxPoint x="120" y="420" as="targetPoint" />
            <mxPoint as="offset" />
          </mxGeometry>
        </mxCell>
        <mxCell id="sCs1FFfdnBTJLXxeUYFg-12" value="thêm vào" style="edgeStyle=segmentEdgeStyle;endArrow=blockThin;html=1;curved=0;rounded=1;endSize=8;startSize=8;strokeWidth=5;endFill=1;fontSize=16;fontFamily=Noto Sans;fontSource=https%3A%2F%2Ffonts.googleapis.com%2Fcss%3Ffamily%3DNoto%2BSans;labelBackgroundColor=none;" parent="1" edge="1">
          <mxGeometry x="-1" y="-28" width="50" height="50" relative="1" as="geometry">
            <mxPoint x="930" y="330" as="sourcePoint" />
            <mxPoint x="850" y="370" as="targetPoint" />
            <mxPoint x="8" y="-20" as="offset" />
            <Array as="points">
              <mxPoint x="930" y="370" />
            </Array>
          </mxGeometry>
        </mxCell>
      </root>
    </mxGraphModel>
  </diagram>
</mxfile>
